<svg width="14" height="13" viewBox="0 0 14 13" fill="none" xmlns="http://www.w3.org/2000/svg">
<path d="M1.49807 9.64355C1.58427 9.64367 1.66964 9.62674 1.74927 9.59376C1.82891 9.56077 1.90125 9.51238 1.96212 9.45136L5.65432 5.75913L7.15902 7.26386C7.21996 7.3248 7.2923 7.37314 7.37193 7.40612C7.45155 7.4391 7.53689 7.45608 7.62307 7.45608C7.70925 7.45608 7.79459 7.4391 7.87422 7.40612C7.95384 7.37314 8.02618 7.3248 8.08712 7.26386L12.2166 3.1344L12.2163 4.6123C12.2163 4.78635 12.2855 4.95327 12.4085 5.07634C12.5316 5.19941 12.6985 5.26855 12.8726 5.26855C13.0466 5.26855 13.2135 5.19941 13.3366 5.07634C13.4597 4.95327 13.5288 4.78635 13.5288 4.6123L13.5293 1.5498C13.5293 1.37576 13.4602 1.20884 13.3371 1.08577C13.214 0.962695 13.0471 0.893555 12.8731 0.893555H9.81057C9.63652 0.893555 9.4696 0.962695 9.34653 1.08577C9.22346 1.20884 9.15432 1.37576 9.15432 1.5498C9.15432 1.72385 9.22346 1.89077 9.34653 2.01384C9.4696 2.13691 9.63652 2.20605 9.81057 2.20605H11.2887L7.62307 5.87173L6.11837 4.367C6.05743 4.30606 5.98509 4.25772 5.90547 4.22474C5.82584 4.19176 5.7405 4.17478 5.65432 4.17478C5.56814 4.17478 5.4828 4.19176 5.40318 4.22474C5.32355 4.25772 5.25121 4.30606 5.19027 4.367L1.03402 8.52325C0.942237 8.61503 0.879732 8.73197 0.854408 8.85927C0.829085 8.98657 0.842081 9.11853 0.891753 9.23844C0.941425 9.35836 1.02554 9.46085 1.13347 9.53296C1.24139 9.60507 1.36827 9.64356 1.49807 9.64355Z" fill="#28B446"/>
<path d="M12.873 10.9561H1.49805C1.324 10.9561 1.15708 11.0252 1.03401 11.1483C0.910937 11.2713 0.841797 11.4383 0.841797 11.6123C0.841797 11.7864 0.910937 11.9533 1.03401 12.0763C1.15708 12.1994 1.324 12.2686 1.49805 12.2686H12.873C13.0471 12.2686 13.214 12.1994 13.3371 12.0763C13.4602 11.9533 13.5293 11.7864 13.5293 11.6123C13.5293 11.4383 13.4602 11.2713 13.3371 11.1483C13.214 11.0252 13.0471 10.9561 12.873 10.9561Z" fill="#28B446"/>
</svg>
