<svg width="14" height="14" viewBox="0 0 14 14" fill="none" xmlns="http://www.w3.org/2000/svg">
<path d="M1.31252 10.0625C1.39872 10.0626 1.48409 10.0457 1.56373 10.0127C1.64336 9.97972 1.7157 9.93133 1.77657 9.8703L5.46877 6.17807L6.97347 7.6828C7.03441 7.74374 7.10676 7.79208 7.18638 7.82507C7.266 7.85805 7.35134 7.87502 7.43752 7.87502C7.52371 7.87502 7.60905 7.85805 7.68867 7.82507C7.76829 7.79208 7.84064 7.74374 7.90158 7.6828L12.031 3.55335L12.0308 5.03125C12.0308 5.2053 12.0999 5.37222 12.223 5.49529C12.3461 5.61836 12.513 5.6875 12.687 5.6875C12.8611 5.6875 13.028 5.61836 13.1511 5.49529C13.2741 5.37222 13.3433 5.2053 13.3433 5.03125L13.3438 1.96875C13.3438 1.7947 13.2746 1.62778 13.1516 1.50471C13.0285 1.38164 12.8616 1.3125 12.6875 1.3125H9.62502C9.45098 1.3125 9.28406 1.38164 9.16099 1.50471C9.03792 1.62778 8.96877 1.7947 8.96877 1.96875C8.96877 2.1428 9.03792 2.30972 9.16099 2.43279C9.28406 2.55586 9.45098 2.625 9.62502 2.625H11.1032L7.43752 6.29068L5.93282 4.78595C5.87189 4.72501 5.79954 4.67667 5.71992 4.64368C5.6403 4.6107 5.55496 4.59373 5.46877 4.59373C5.38259 4.59373 5.29725 4.6107 5.21763 4.64368C5.13801 4.67667 5.06566 4.72501 5.00472 4.78595L0.848473 8.9422C0.75669 9.03398 0.694185 9.15091 0.668861 9.27822C0.643538 9.40552 0.656534 9.53747 0.706206 9.65739C0.755878 9.77731 0.839995 9.8798 0.947919 9.95191C1.05584 10.024 1.18273 10.0625 1.31252 10.0625Z" fill="white"/>
<path d="M12.6875 11.375H1.3125C1.13845 11.375 0.971532 11.4441 0.848461 11.5672C0.72539 11.6903 0.65625 11.8572 0.65625 12.0312C0.65625 12.2053 0.72539 12.3722 0.848461 12.4953C0.971532 12.6184 1.13845 12.6875 1.3125 12.6875H12.6875C12.8615 12.6875 13.0285 12.6184 13.1515 12.4953C13.2746 12.3722 13.3438 12.2053 13.3438 12.0312C13.3438 11.8572 13.2746 11.6903 13.1515 11.5672C13.0285 11.4441 12.8615 11.375 12.6875 11.375Z" fill="white"/>
</svg>
