<svg width="17" height="17" viewBox="0 0 17 17" fill="none" xmlns="http://www.w3.org/2000/svg">
<path d="M2.18555 1.68164C2.18555 1.54903 2.23823 1.42186 2.33199 1.32809C2.42576 1.23432 2.55294 1.18164 2.68555 1.18164H14.6855C14.8182 1.18164 14.9453 1.23432 15.0391 1.32809C15.1329 1.42186 15.1855 1.54903 15.1855 1.68164V3.68164C15.1855 3.80495 15.1399 3.9239 15.0575 4.01564L10.6855 8.87364V13.6816C10.6855 13.7865 10.6524 13.8888 10.591 13.9738C10.5296 14.0589 10.4431 14.1225 10.3435 14.1556L7.34355 15.1556C7.26842 15.1807 7.18843 15.1875 7.11015 15.1755C7.03187 15.1636 6.95755 15.1332 6.8933 15.087C6.82905 15.0407 6.77671 14.9798 6.74059 14.9093C6.70447 14.8389 6.68561 14.7608 6.68555 14.6816V8.87364L2.31355 4.01564C2.23116 3.9239 2.18557 3.80495 2.18555 3.68164V1.68164Z" fill="black"/>
</svg>
