<svg width="21" height="21" viewBox="0 0 21 21" fill="none" xmlns="http://www.w3.org/2000/svg">
<path d="M5.21563 15.8066C5.21563 15.9724 5.14979 16.1313 5.03257 16.2486C4.91536 16.3658 4.75639 16.4316 4.59063 16.4316C4.42487 16.4316 4.2659 16.3658 4.14869 16.2486C4.03148 16.1313 3.96563 15.9724 3.96563 15.8066V4.81536L2.53313 6.24911C2.47502 6.30722 2.40604 6.35332 2.33011 6.38477C2.25419 6.41622 2.17281 6.4324 2.09063 6.4324C2.00845 6.4324 1.92708 6.41622 1.85115 6.38477C1.77523 6.35332 1.70624 6.30722 1.64813 6.24911C1.59002 6.191 1.54393 6.12202 1.51248 6.04609C1.48103 5.97017 1.46484 5.88879 1.46484 5.80661C1.46484 5.72443 1.48103 5.64306 1.51248 5.56713C1.54393 5.49121 1.59002 5.42222 1.64813 5.36411L4.14813 2.86536L4.15688 2.85661C4.27438 2.74249 4.43213 2.67928 4.59592 2.68069C4.75972 2.68209 4.91636 2.748 5.03188 2.86411L7.53188 5.36411C7.58999 5.42214 7.6361 5.49105 7.66758 5.5669C7.69907 5.64274 7.7153 5.72405 7.71536 5.80617C7.71541 5.88829 7.6993 5.96962 7.66792 6.04552C7.63655 6.12141 7.59054 6.19038 7.53251 6.24849C7.47448 6.3066 7.40558 6.35271 7.32973 6.38419C7.25388 6.41567 7.17257 6.4319 7.09045 6.43196C7.00833 6.43202 6.927 6.4159 6.85111 6.38453C6.77521 6.35316 6.70624 6.30714 6.64813 6.24911L5.21563 4.81536V15.8066ZM9.59063 4.55661C9.59063 4.39085 9.65648 4.23188 9.77369 4.11467C9.8909 3.99746 10.0499 3.93161 10.2156 3.93161H18.9656C19.1314 3.93161 19.2904 3.99746 19.4076 4.11467C19.5248 4.23188 19.5906 4.39085 19.5906 4.55661C19.5906 4.72237 19.5248 4.88135 19.4076 4.99856C19.2904 5.11577 19.1314 5.18161 18.9656 5.18161H10.2156C10.0499 5.18161 9.8909 5.11577 9.77369 4.99856C9.65648 4.88135 9.59063 4.72237 9.59063 4.55661ZM10.2156 7.68161C10.0499 7.68161 9.8909 7.74746 9.77369 7.86467C9.65648 7.98188 9.59063 8.14085 9.59063 8.30661C9.59063 8.47237 9.65648 8.63134 9.77369 8.74856C9.8909 8.86577 10.0499 8.93161 10.2156 8.93161H16.4656C16.6314 8.93161 16.7904 8.86577 16.9076 8.74856C17.0248 8.63134 17.0906 8.47237 17.0906 8.30661C17.0906 8.14085 17.0248 7.98188 16.9076 7.86467C16.7904 7.74746 16.6314 7.68161 16.4656 7.68161H10.2156ZM10.2156 11.4316C10.0499 11.4316 9.8909 11.4975 9.77369 11.6147C9.65648 11.7319 9.59063 11.8909 9.59063 12.0566C9.59063 12.2224 9.65648 12.3813 9.77369 12.4986C9.8909 12.6158 10.0499 12.6816 10.2156 12.6816H13.9656C14.1314 12.6816 14.2904 12.6158 14.4076 12.4986C14.5248 12.3813 14.5906 12.2224 14.5906 12.0566C14.5906 11.8909 14.5248 11.7319 14.4076 11.6147C14.2904 11.4975 14.1314 11.4316 13.9656 11.4316H10.2156ZM10.2156 15.1816C10.0499 15.1816 9.8909 15.2475 9.77369 15.3647C9.65648 15.4819 9.59063 15.6409 9.59063 15.8066C9.59063 15.9724 9.65648 16.1313 9.77369 16.2486C9.8909 16.3658 10.0499 16.4316 10.2156 16.4316H11.4656C11.6314 16.4316 11.7904 16.3658 11.9076 16.2486C12.0248 16.1313 12.0906 15.9724 12.0906 15.8066C12.0906 15.6409 12.0248 15.4819 11.9076 15.3647C11.7904 15.2475 11.6314 15.1816 11.4656 15.1816H10.2156Z" fill="black"/>
</svg>
