<svg width="21" height="21" viewBox="0 0 21 21" fill="none" xmlns="http://www.w3.org/2000/svg">
<path fill-rule="evenodd" clip-rule="evenodd" d="M13.0581 7.66902L12.5356 9.38277H11.2031L13.4394 2.71777H14.9819L17.2081 9.38277H15.8081L15.2844 7.66902H13.0581ZM15.0206 6.68777L14.2056 3.99152H14.1469L13.3319 6.68777H15.0206Z" fill="black"/>
<path d="M16.6559 18.1328H11.7409V17.2691L14.9646 12.6191V12.5516H11.8284V11.4678H16.5596V12.3316L13.3509 16.9816V17.0491H16.6571V18.1328H16.6559ZM6.08087 3.75781C6.08087 3.59205 6.01502 3.43308 5.89781 3.31587C5.7806 3.19866 5.62163 3.13281 5.45587 3.13281C5.29011 3.13281 5.13114 3.19866 5.01393 3.31587C4.89672 3.43308 4.83087 3.59205 4.83087 3.75781V15.9991L3.39837 14.5653C3.34026 14.5072 3.27127 14.4611 3.19535 14.4297C3.11942 14.3982 3.03805 14.382 2.95587 14.382C2.87369 14.382 2.79231 14.3982 2.71639 14.4297C2.64046 14.4611 2.57148 14.5072 2.51337 14.5653C2.45526 14.6234 2.40916 14.6924 2.37771 14.7683C2.34626 14.8443 2.33008 14.9256 2.33008 15.0078C2.33008 15.09 2.34626 15.1714 2.37771 15.2473C2.40916 15.3232 2.45526 15.3922 2.51337 15.4503L5.01337 17.9491L5.02212 17.9578C5.13946 18.0722 5.29727 18.1357 5.46116 18.1342C5.62505 18.1328 5.78175 18.0667 5.89712 17.9503L8.39712 15.4503C8.51448 15.3331 8.58047 15.1741 8.58059 15.0083C8.58071 14.8424 8.51494 14.6833 8.39774 14.5659C8.28055 14.4486 8.12154 14.3826 7.95568 14.3825C7.78983 14.3823 7.63073 14.4481 7.51337 14.5653L6.08087 15.9991V3.75781Z" fill="black"/>
</svg>
